<svg xmlns="http://www.w3.org/2000/svg" xmlns:xlink="http://www.w3.org/1999/xlink" width="556" height="545" version="1.1" viewBox="381 211 556 545"><desc>Created with Sketch.</desc><defs><linearGradient id="linearGradient-1" x1="100%" x2="0%" y1="100%" y2="0%"><stop offset="0%" stop-color="#06A2FF"/><stop offset="100%" stop-color="#1AE5DC"/></linearGradient><linearGradient id="linearGradient-2" x1="-1.645%" x2="100%" y1="24.376%" y2="83.128%"><stop offset="0%" stop-color="#C444FB"/><stop offset="100%" stop-color="#FF2B67"/></linearGradient><linearGradient id="linearGradient-3" x1="0%" x2="81.01%" y1="0%" y2="92.078%"><stop offset="0%" stop-color="#FF5C3B"/><stop offset="100%" stop-color="#FF2B67"/></linearGradient><linearGradient id="linearGradient-4" x1="50%" x2="50%" y1="100%" y2="0%"><stop offset="0%" stop-color="#FD2D68"/><stop offset="100%" stop-color="#FE593F"/></linearGradient><linearGradient id="linearGradient-5" x1="16154%" x2="16154%" y1="5500%" y2="4000%"><stop offset="0%" stop-color="#FD2D68"/><stop offset="100%" stop-color="#FE593F"/></linearGradient><linearGradient id="linearGradient-6" x1="50.075%" x2="50.075%" y1="100%" y2="-.005%"><stop offset="0%" stop-color="#17A9F9"/><stop offset="100%" stop-color="#26D8E2"/></linearGradient><linearGradient id="linearGradient-7" x1="3227%" x2="3227%" y1="15940%" y2="9500%"><stop offset="0%" stop-color="#17A9F9"/><stop offset="100%" stop-color="#26D8E2"/></linearGradient><linearGradient id="linearGradient-8" x1="4357%" x2="4357%" y1="12358%" y2="10808%"><stop offset="0%" stop-color="#17A9F9"/><stop offset="100%" stop-color="#26D8E2"/></linearGradient><linearGradient id="linearGradient-9" x1="26332%" x2="26332%" y1="13256%" y2="10156%"><stop offset="0%" stop-color="#17A9F9"/><stop offset="100%" stop-color="#26D8E2"/></linearGradient><linearGradient id="linearGradient-10" x1="26332%" x2="26332%" y1="16556%" y2="13656%"><stop offset="0%" stop-color="#17A9F9"/><stop offset="100%" stop-color="#26D8E2"/></linearGradient></defs><g id="Grid" fill="none" fill-rule="evenodd" stroke="none" stroke-linecap="round" stroke-linejoin="round" stroke-width="1" opacity=".197" transform="translate(382.000000, 346.000000)"><g id="Group" stroke="#FEFEFE" transform="translate(178.862275, 104.922156)"><polygon id="Stroke-5-Copy" fill="#000" points="27.862 17.67 56.009 0 84.153 17.67 56.009 35.339"/><polygon id="Stroke-5-Copy-6" points="0 35.401 28.146 17.731 56.291 35.401 28.146 53.069"/><polygon id="Stroke-5-Copy-7" fill="#000" points="27.862 53.132 56.009 35.461 84.153 53.132 56.009 70.8"/><polygon id="Stroke-5-Copy-5" points="55.725 35.401 83.871 17.731 112.015 35.401 83.871 53.069"/></g><g id="Group-Copy-6" fill="#000" stroke="#FEFEFE" transform="translate(206.724551, 210.461078)"><polygon id="Stroke-5-Copy" points="0 17.67 28.146 0 56.291 17.67 28.146 35.339"/></g><g id="Group-Copy-8" fill="#000" stroke="#FEFEFE" transform="translate(292.000000, 210.461078)"><polygon id="Stroke-5-Copy" points="27.862 17.67 56.009 0 84.153 17.67 56.009 35.339"/><polygon id="Stroke-5-Copy-6" points="0 35.401 28.146 17.731 56.291 35.401 28.146 53.069"/><polygon id="Stroke-5-Copy-5" points="56.569 35.401 84.715 17.731 112.86 35.401 84.715 53.069"/></g><g id="Group-Copy-4" fill="#000" stroke="#FEFEFE" transform="translate(122.859742, 140.383234)"><polygon id="Stroke-5-Copy" points="27.862 17.67 56.009 0 84.153 17.67 56.009 35.339"/><polygon id="Stroke-5-Copy-6" points="0 35.401 28.146 17.731 56.291 35.401 28.146 53.069"/><polygon id="Stroke-5-Copy-5" points="319 233.67 347.146 216 375.291 233.67 347.146 251.339"/></g><g id="Group-Copy-11" stroke="#FEFEFE" transform="translate(66.568862, 175.844311)"><polygon id="Stroke-5-Copy" points="27.862 17.67 56.009 0 84.153 17.67 56.009 35.339"/><polygon id="Stroke-5-Copy-6" fill="#000" points="0 35.401 28.146 17.731 56.291 35.401 28.146 53.069"/></g><g id="Group-Copy" fill="#000" stroke="#FEFEFE" transform="translate(234.586826, 140.383234)"><polygon id="Stroke-5-Copy" points="27.862 17.67 56.009 0 84.153 17.67 56.009 35.339"/><polygon id="Stroke-5-Copy-6" points="0 35.401 28.146 17.731 56.291 35.401 28.146 53.069"/><polygon id="Stroke-5-Copy-5" points="56.569 35.401 84.715 17.731 112.86 35.401 84.715 53.069"/></g><g id="Group-Copy-16" fill="#000" stroke="#FEFEFE" transform="translate(37.862275, 0.652695)"><polygon id="Stroke-5-Copy" points="38 17.67 66.146 0 94.291 17.67 66.146 35.339"/><polygon id="Stroke-5-Copy-6" points="0 157.401 28.146 139.731 56.291 157.401 28.146 175.069"/><polygon id="Stroke-5-Copy-7" points="28.707 175.132 56.853 157.461 84.997 175.132 56.853 192.8"/><polygon id="Stroke-5-Copy-5" points="56.569 157.401 84.715 139.731 112.86 157.401 84.715 175.069"/></g><g id="Group-Copy-22" fill="#000" stroke="#FEFEFE" transform="translate(0.000000, 182.305389)"><polygon id="Stroke-5-Copy" points="0 17.67 28.146 0 56.291 17.67 28.146 35.339"/><polygon id="Stroke-5-Copy-6" points="10 64.401 38.146 46.731 66.291 64.401 38.146 82.069"/><polygon id="Stroke-5-Copy-7" points="38.707 82.132 66.853 64.461 94.997 82.132 66.853 99.8"/><polygon id="Stroke-5-Copy-13" points="94.431 117.593 122.578 99.922 150.722 117.593 122.578 135.261"/><polygon id="Stroke-5-Copy-14" points="94.431 153.054 122.578 135.383 150.722 153.054 122.578 170.722"/><polygon id="Stroke-5-Copy-5" points="66.569 64.401 94.715 46.731 122.86 64.401 94.715 82.069"/></g><g id="Group-Copy-3" fill="#000" stroke="#FEFEFE" transform="translate(290.311377, 51.000000)"><polygon id="Stroke-5-Copy-6" points="0 18.401 28.146 .731 56.291 18.401 28.146 36.069"/><polygon id="Stroke-5-Copy-5" points="178 44.67 206.146 27 234.291 44.67 206.146 62.339"/></g><g id="Group-Copy-14" stroke="#FEFEFE" transform="translate(376.431138, 69.461078)"><polygon id="Stroke-5-Copy" points="0 17.67 28.146 0 56.291 17.67 28.146 35.339"/></g><g id="Group-Copy-18" fill="#000" stroke="#FEFEFE" transform="translate(469.431138, 248.000000)"><polygon id="Stroke-5-Copy-6" points="0 17.67 28.146 0 56.291 17.67 28.146 35.339"/></g><g id="Group-Copy-13" fill="#000" stroke="#FEFEFE" transform="translate(21.586826, 64.191617)"><polygon id="Stroke-5-Copy-6" points="0 17.67 28.146 0 56.291 17.67 28.146 35.339"/></g><polygon id="Stroke-5-Copy-2" fill="#000" stroke="#FEFEFE" points="234.587 104.862 262.733 87.192 290.878 104.862 262.733 122.53"/><polygon id="Stroke-5-Copy-4" fill="#000" stroke="#FEFEFE" points="262.449 87.132 290.596 69.461 318.74 87.132 290.596 104.8"/><polygon id="Stroke-5-Copy-8" fill="#000" stroke="#FEFEFE" points="290.311 104.862 318.458 87.192 346.602 104.862 318.458 122.53"/></g><path id="Combined-Shape-Copy-7" fill="url(#linearGradient-1)" fill-rule="evenodd" stroke="#161D26" stroke-linecap="round" stroke-linejoin="round" stroke-width="1" d="M483.999915,430.06677 L476,425.044964 L492.00017,415 L507.999205,425.044964 L507.038828,425.647867 L508,425.044508 L508,441.112803 L491.99983,451.157768 L476,441.113259 L476,425.044964 L483.999915,430.06677 Z M491.99983,435.088575 L491.99983,451.15687 L492.00017,435.088789 Z M483.999915,430.06677 L492.00017,435.088789 L507.038828,425.647867 L491.99983,435.088333 L483.999915,430.06677 Z"/><path id="Combined-Shape-Copy-22" fill="url(#linearGradient-2)" fill-rule="evenodd" stroke="#161D26" stroke-linecap="round" stroke-linejoin="round" stroke-width="1" d="M813.999915,248.06677 L806,243.044964 L822.00017,233 L837.999205,243.044964 L837.038828,243.647867 L838,243.044508 L838,259.112803 L821.99983,269.157768 L806,259.113259 L806,243.044964 L813.999915,248.06677 Z M821.99983,253.088575 L821.99983,269.15687 L822.00017,253.088789 Z M813.999915,248.06677 L822.00017,253.088789 L837.038828,243.647867 L821.99983,253.088333 L813.999915,248.06677 Z"/><path id="Combined-Shape-Copy-24" fill="url(#linearGradient-3)" fill-rule="evenodd" stroke="#161D26" stroke-linecap="round" stroke-linejoin="round" stroke-width="1" d="M915.749928,736.712587 L909,732.475439 L922.500144,724 L935.99933,732.475439 L935.189011,732.984138 L936,732.475054 L936,746.032678 L922.499856,754.508117 L909,746.033063 L909,732.475439 L915.749928,736.712587 Z M922.499856,740.949735 L922.499856,754.507359 L922.500144,740.949915 Z M915.749928,736.712587 L922.500144,740.949915 L935.189011,732.984138 L922.499856,740.949531 L915.749928,736.712587 Z"/><path id="Combined-Shape-Copy-20" fill="url(#linearGradient-1)" fill-rule="evenodd" stroke="#161D26" stroke-linecap="round" stroke-linejoin="round" stroke-width="1" d="M451.999915,498.06677 L444,493.044964 L460.00017,483 L475.999205,493.044964 L475.038828,493.647867 L476,493.044508 L476,509.112803 L459.99983,519.157768 L444,509.113259 L444,493.044964 L451.999915,498.06677 Z M459.99983,503.088575 L459.99983,519.15687 L460.00017,503.088789 Z M451.999915,498.06677 L460.00017,503.088789 L475.038828,493.647867 L459.99983,503.088333 L451.999915,498.06677 Z"/><path id="Combined-Shape-Copy-21" fill="url(#linearGradient-2)" fill-rule="evenodd" stroke="#161D26" stroke-linecap="round" stroke-linejoin="round" stroke-width="1" d="M424.249933,676.770914 L418,672.847628 L430.500133,665 L442.999379,672.847628 L442.249084,673.318646 L443,672.847272 L443,685.400628 L430.499867,693.248256 L418,685.400984 L418,672.847628 L424.249933,676.770914 Z M430.499867,680.694199 L430.499867,693.247555 L430.500133,680.694366 Z M424.249933,676.770914 L430.500133,680.694366 L442.249084,673.318646 L430.499867,680.69401 L424.249933,676.770914 Z"/><g id="Gruntwork_Illustrations-02" fill="none" fill-rule="evenodd" stroke="none" stroke-width="1" transform="translate(500.000000, 211.000000)"><path id="Shape" fill="#FFF" fill-rule="nonzero" d="M102.88,289.33 C102.88,289.33 96.88,319.33 104.88,356.33 L108.55,351.33 C108.410552,361.085178 109.444641,370.821733 111.63,380.33 L115.21,377.75 L118.04,395.75 C119.099276,402.505955 124.921508,407.483709 131.76,407.48 L131.76,407.48 C138.109782,407.472161 143.644582,403.156336 145.2,397 L149.54,380 C157.546701,382.66941 166.203299,382.66941 174.21,380 L178.55,397 C180.098593,403.167886 185.640682,407.494424 192,407.5 L192,407.5 C198.838492,407.503709 204.660724,402.525955 205.72,395.77 L208.55,377.77 L212.13,380.35 C214.315359,370.841733 215.349448,361.105178 215.21,351.35 L218.88,356.35 C226.88,319.35 220.88,289.35 220.88,289.35 C223.04,261.02 215.21,244.27 215.21,244.27 C210.54,233.27 200.21,222.52 200.21,222.52 L204.21,222.52 C195.73,214.04 184.34,209.77 175.51,207.63 C166.549186,205.462697 157.200814,205.462697 148.24,207.63 C139.41,209.77 128.02,214.03 119.54,222.52 L123.54,222.52 C123.54,222.52 113.21,233.27 108.54,244.27 C108.54,244.25 100.21,260.67 102.88,289.33 Z"/><path id="Shape" fill="#FFF" fill-rule="nonzero" d="M214.93,258.84 C229.11,259.3 242.27,250.84 242.27,250.84 L241.27,254.78 C250.800944,248.674947 259.204693,240.968127 266.11,232 L268.87,236.22 C268.87,236.22 273.43,225.68 282.22,218.53 C291.01,211.38 307.09,217.76 308.41,232.04 C309.73,246.32 286.21,254.28 286.21,254.28 L290.37,255.53 C281.89,261.53 263.5,273.88 263.5,273.88 L267.66,275.13 C240.12,289.65 224.92,289.13 224.92,289.13 L227.53,292.13 C203.79,296.77 183.93,284.85 183.93,284.85"/><path id="Shape" fill="#FFF" fill-rule="nonzero" d="M108.15,258.84 C93.97,259.3 80.81,250.84 80.81,250.84 L81.81,254.78 C72.2897734,248.672191 63.8963375,240.965521 57,232 L54.24,236.22 C54.24,236.22 49.68,225.68 40.89,218.53 C32.1,211.38 16,217.78 14.67,232.06 C13.34,246.34 36.87,254.3 36.87,254.3 L32.71,255.55 C41.19,261.55 59.58,273.9 59.58,273.9 L55.42,275.15 C82.96,289.67 98.16,289.15 98.16,289.15 L95.55,292.15 C119.29,296.79 139.15,284.87 139.15,284.87"/><circle id="Oval" cx="135.21" cy="250.33" r="4" fill="#171D26" fill-rule="nonzero"/><circle id="Oval" cx="188.54" cy="250.33" r="4" fill="#171D26" fill-rule="nonzero"/><path id="Shape" stroke="#171D26" stroke-linecap="round" stroke-width="4" d="M131.54,264.5 L131.54,264.5 C149.831227,277.465593 174.202065,277.886396 192.93,265.56 L194.54,264.5"/><path id="Shape" fill="url(#linearGradient-4)" fill-rule="nonzero" d="M179.54,26 L179.54,18 C179.54,8.0588745 171.481125,6.08718376e-16 161.54,0 C151.598875,-6.08718376e-16 143.54,8.0588745 143.54,18 L143.54,26 L136.54,26 L136.54,59 C136.54,64.5228475 141.017153,69 146.54,69 L176.54,69 C182.062847,69 186.54,64.5228475 186.54,59 L186.54,26 L179.54,26 Z M145.54,18 C145.54,9.163444 152.703444,2 161.54,2 C170.376556,2 177.54,9.163444 177.54,18 L177.54,26 L145.54,26 L145.54,18 Z M184.54,59 C184.54,63.418278 180.958278,67 176.54,67 L146.54,67 C142.121722,67 138.54,63.418278 138.54,59 L138.54,28 L184.54,28 L184.54,59 Z"/><path id="Shape" fill="url(#linearGradient-5)" fill-rule="nonzero" d="M161.54,40 C159.330861,40 157.54,41.790861 157.54,44 L157.54,51 C157.54,53.209139 159.330861,55 161.54,55 C163.749139,55 165.54,53.209139 165.54,51 L165.54,44 C165.54,41.790861 163.749139,40 161.54,40 Z M163.54,51 C163.54,52.1045695 162.644569,53 161.54,53 C160.435431,53 159.54,52.1045695 159.54,51 L159.54,44 C159.54,42.8954305 160.435431,42 161.54,42 C162.644569,42 163.54,42.8954305 163.54,44 L163.54,51 Z"/><path id="Shape" fill="url(#linearGradient-6)" fill-rule="nonzero" d="M288.54,150 L283.54,150 L283.54,145.1 L305.54,145.1 C311.256249,145.06606 316.520175,141.985115 319.348906,137.017728 C322.177638,132.05034 322.141424,125.951175 319.253906,121.017728 C316.366389,116.08428 311.066249,113.06606 305.35,113.1 C303.759422,100.534407 292.677992,91.367826 280.036991,92.1610282 C267.39599,92.9542305 257.547346,103.43414 257.54,116.1 L257.54,116.32 C250.217416,117.587543 245.040834,124.189318 245.556382,131.602894 C246.071929,139.01647 252.112455,144.838196 259.54,145.08 L281.54,145.08 L281.54,150 L276.54,150 L276.54,155 L247.54,155 L247.54,157 L276.54,157 L276.54,161 L288.54,161 L288.54,157 L317.54,157 L317.54,155 L288.54,155 L288.54,150 Z M247.54,130.61 C247.52919,124.229746 252.336129,118.870484 258.68,118.19 L259.61,118.09 L259.61,117.15 L259.61,116.15 C259.617715,104.367373 268.907058,94.682651 280.679136,94.1841068 C292.451213,93.6855625 302.526117,102.550214 303.53,114.29 L303.71,115.29 L304.71,115.22 L305.63,115.22 C313.361986,115.22 319.63,121.488014 319.63,129.22 C319.63,136.951986 313.361986,143.22 305.63,143.22 L259.63,143.22 C252.832434,143.023961 247.449779,137.409794 247.54,130.61 L247.54,130.61 Z M286.54,159 L278.54,159 L278.54,152 L286.54,152 L286.54,159 Z"/><path id="Shape" fill="url(#linearGradient-7)" fill-rule="nonzero" d="M60.16,95 C50.294898,94.9478602 40.8196942,98.8481437 33.85,105.83 L26.44,113.2 L18.77,111.83 C16.0441435,111.342729 13.2601394,112.29973 11.41,114.36 L0,127 L12.87,128.61 L15.46,131.19 L9.8,136.87 L11.92,139 L10.6,140.25 C8.01751682,142.794857 6.55629361,146.264362 6.54,149.89 L6.54,153 L9.54,153 C13.1756036,152.954882 16.6439258,151.465375 19.18,148.86 L20.43,147.54 L22.55,149.63 L28.19,144 L30.78,146.58 L32.39,159.45 L45.05,148 C47.1172805,146.149924 48.0784916,143.360898 47.59,140.63 L46.23,133 L53.64,125.59 C60.6380797,118.625526 64.5624556,109.153019 64.54,99.28 L64.54,95 L60.16,95 Z M12.89,115.69 C14.2791172,114.140534 16.3719048,113.421493 18.42,113.79 L24.71,114.9 L14.19,125.41 L13,126.62 L4,125.51 L12.89,115.69 Z M19,146.06 L17.75,147.45 C15.5866518,149.678869 12.6258012,150.956029 9.52,151 L8.52,151 L8.52,149.88 C8.53780065,146.782715 9.79036157,143.820481 12,141.65 L13.28,140.4 L19,146.06 Z M22.54,146.77 L21.83,146.06 L21.83,146.06 L13.34,137.57 L12.63,136.86 L16.87,132.62 L26.77,142.52 L22.54,146.77 Z M43.72,146.51 L33.9,155.35 L32.78,146.42 L44.51,134.69 L45.62,141 C45.9787418,143.043359 45.2564432,145.127059 43.71,146.51 L43.72,146.51 Z M62.54,99.24 C62.5647048,108.583438 58.8525073,117.548881 52.23,124.14 L45.81,130.56 L45.81,130.56 L31.72,144.65 L29.6,142.53 L29.6,142.53 L16.87,129.8 L16.87,129.8 L14.75,127.68 L35.26,107.25 C41.8559542,100.641934 50.8234752,96.9504847 60.16,97 L62.54,97 L62.54,99.24 Z"/><path id="Shape" fill="url(#linearGradient-8)" fill-rule="nonzero" d="M38.09,110.34 C35.0796558,113.372352 35.0915453,118.269111 38.1165794,121.286809 C41.1416135,124.304507 46.0383865,124.304507 49.0634206,121.286809 C52.0884547,118.269111 52.1003442,113.372352 49.09,110.34 C47.6417151,108.86185 45.6594095,108.028877 43.59,108.028877 C41.5205905,108.028877 39.5382849,108.86185 38.09,110.34 L38.09,110.34 Z M47.64,119.89 C45.6979243,121.826486 42.6585407,122.121854 40.3799481,120.595535 C38.1013554,119.069216 37.217873,116.146109 38.2696097,113.613229 C39.3213464,111.080348 42.0155174,109.642802 44.7050665,110.179422 C47.3946156,110.716041 49.3308203,113.07744 49.33,115.82 C49.3355457,117.351396 48.7267862,118.821065 47.64,119.9 L47.64,119.89 Z"/><path id="Shape" stroke="#495058" stroke-width="2.07" d="M299.57,167 C299.763333,169.966667 299.86,172.966667 299.86,176 C299.865435,184.958698 299.004765,193.896941 297.29,202.69"/><path id="Shape" stroke="#495058" stroke-width="2.07" d="M198.55,42.69 C224.479578,49.9001025 247.742984,64.5170562 265.49,84.75"/><path id="Shape" stroke="#495058" stroke-width="2.07" d="M61.12,80.89 C77.0473129,64.0509091 96.9497656,51.4829297 119,44.34"/><path id="Shape" stroke="#495058" stroke-width="2.07" d="M26,203.87 C24.1402338,194.697023 23.212186,185.359589 23.23,176 C23.23,171.96 23.4,167.96 23.74,164"/><path id="Shape" fill="#B6B9BC" fill-rule="nonzero" d="M172,200 L151.13,200 C130.763185,200.027973 113.122614,214.13711 108.62,234 L105.87,234 C100.170421,234 95.55,238.620421 95.55,244.32 L95.55,253.67 C95.5473462,256.408766 96.6334571,259.036269 98.5691202,260.973807 C100.504783,262.911346 103.131232,264.000001 105.87,264 L108.61,264 C113.018181,283.288309 130.164391,296.975415 149.95,297 L163.55,297 C166.311424,297 168.55,294.761424 168.55,292 C168.55,289.238576 166.311424,287 163.55,287 L158.55,287 C156.173657,286.999515 154.125269,288.671669 153.65,291 L149.95,291 C129.855974,290.977955 113.572045,274.694026 113.55,254.6 L113.55,243.6 C113.566525,222.848749 130.378761,206.027566 151.13,206 L172,206 C192.751245,206.022046 209.567954,222.838755 209.59,243.59 L209.59,247 C209.59,248.656854 210.933146,250 212.59,250 C214.246854,250 215.59,248.656854 215.59,247 L215.59,243.59 C215.562446,219.52733 196.06267,200.027554 172,200 Z"/><path id="Shape" fill="#17A9F9" fill-rule="nonzero" d="M194.89,213.18 C192.89,184 172.71,178.31 165.76,177.29 L165.76,177.29 C165.76,177.29 164.76,177.17 163.76,177.1 C162.76,177.03 161.76,177 161.76,177 L161.76,177 C153.76,176.91 133.68,179.62 127.44,208.19 C127.44,208.19 134.61,222.19 159.61,224.37 L159.61,224.37 C160.61,224.44 159.94,224.37 160.11,224.37 L160.61,224.37 L160.61,224.37 C188.54,226.17 194.89,213.18 194.89,213.18 Z"/><path id="Shape" d="M138,194.57 C138,194.57 142.92,201.67 136.49,214.94"/><path id="Shape" fill="url(#linearGradient-9)" fill-rule="nonzero" d="M159.033108,173.875261 L168.776893,173.875261 C171.068947,173.875261 172.927023,175.733338 172.927023,178.025391 L172.927023,204.951118 L154.882977,204.951118 L154.882977,178.075514 C154.869578,176.966172 155.300901,175.897648 156.080658,175.108473 C156.860416,174.319298 157.923685,173.87518 159.033108,173.875261 Z" transform="translate(163.904849, 189.413189) rotate(4.004173) translate(-163.904849, -189.413189)"/><path id="Shape" fill="url(#linearGradient-10)" fill-rule="nonzero" d="M125.24,215.83 L131.68,224.9 C136.892807,232.242723 145.109485,236.877208 154.09,237.54 L164.3,238.29 C173.27227,238.94663 182.070385,235.570353 188.3,229.08 L196,221.08 C197.063916,219.969853 197.707515,218.523522 197.82,216.99 L197.99,214.73 C198.110416,213.079028 196.870817,211.642525 195.22,211.52 L191.59,214.22 C183.298799,220.390758 173.136143,223.519359 162.81,223.08 L160.28,222.97 L157.76,222.7 C147.478932,221.616249 137.884526,217.025624 130.59,209.7 L127.4,206.5 C125.749028,206.379584 124.312525,207.619183 124.19,209.27 L124.02,211.53 C123.915012,213.061514 124.346354,214.581819 125.24,215.83 L125.24,215.83 Z"/><path id="Shape" fill="#171D26" fill-rule="nonzero" d="M159.82,228.94 C152.136318,228.370076 146.065658,222.192463 145.63,214.5 C144.40993,220.347768 146.690953,226.372491 151.477982,229.945908 C156.265011,233.519325 162.689637,233.993186 167.949141,231.160771 C173.208645,228.328356 176.348907,222.703491 176,216.74 C174.438524,224.294642 167.512732,229.51681 159.82,228.94 Z" opacity=".15"/><circle id="Oval" cx="160.892" cy="214.629" r="15.36" fill="#FFF" fill-rule="nonzero" transform="translate(160.891944, 214.628691) rotate(-85.770000) translate(-160.891944, -214.628691)"/><path id="Shape" fill="#F2F2F2" fill-rule="nonzero" d="M153.1,221.33 C150.351634,218.187641 149.778906,213.694297 151.651144,209.962989 C153.523383,206.231681 157.467994,204.004978 161.63,204.33"/></g></svg>