<svg xmlns="http://www.w3.org/2000/svg" width="556" height="545" viewBox="381 211 556 545"><desc>Created with Sketch.</desc><defs><linearGradient id="linearGradient-1" x1="1" x2="0" y1="1" y2="0"><stop offset="0" stop-color="#06A2FF"/><stop offset="1" stop-color="#1AE5DC"/></linearGradient><linearGradient id="linearGradient-2" x1="-.016" x2="1" y1=".244" y2=".831"><stop offset="0" stop-color="#C444FB"/><stop offset="1" stop-color="#FF2B67"/></linearGradient><linearGradient id="linearGradient-3" x1="0" x2=".81" y1="0" y2=".921"><stop offset="0" stop-color="#FF5C3B"/><stop offset="1" stop-color="#FF2B67"/></linearGradient><linearGradient id="linearGradient-9" x1="263.32" x2="263.32" y1="132.56" y2="101.56"><stop offset="0" stop-color="#17A9F9"/><stop offset="1" stop-color="#26D8E2"/></linearGradient><linearGradient id="linearGradient-10" x1="263.32" x2="263.32" y1="165.56" y2="136.56"><stop offset="0" stop-color="#17A9F9"/><stop offset="1" stop-color="#26D8E2"/></linearGradient></defs><g id="Grid" fill="none" fill-rule="evenodd" stroke="none" stroke-linecap="round" stroke-linejoin="round" stroke-width="1" opacity=".197" transform="translate(382.000000, 346.000000)"><g id="Group" stroke="#FEFEFE" transform="translate(178.862275, 104.922156)"><polygon id="Stroke-5-Copy" fill="#000" points="27.862 17.67 56.009 0 84.153 17.67 56.009 35.339"/><polygon id="Stroke-5-Copy-6" points="0 35.401 28.146 17.731 56.291 35.401 28.146 53.069"/><polygon id="Stroke-5-Copy-7" fill="#000" points="27.862 53.132 56.009 35.461 84.153 53.132 56.009 70.8"/><polygon id="Stroke-5-Copy-5" points="55.725 35.401 83.871 17.731 112.015 35.401 83.871 53.069"/></g><g id="Group-Copy-6" fill="#000" stroke="#FEFEFE" transform="translate(206.724551, 210.461078)"><polygon id="Stroke-5-Copy" points="0 17.67 28.146 0 56.291 17.67 28.146 35.339"/></g><g id="Group-Copy-8" fill="#000" stroke="#FEFEFE" transform="translate(292.000000, 210.461078)"><polygon id="Stroke-5-Copy" points="27.862 17.67 56.009 0 84.153 17.67 56.009 35.339"/><polygon id="Stroke-5-Copy-6" points="0 35.401 28.146 17.731 56.291 35.401 28.146 53.069"/><polygon id="Stroke-5-Copy-5" points="56.569 35.401 84.715 17.731 112.86 35.401 84.715 53.069"/></g><g id="Group-Copy-4" fill="#000" stroke="#FEFEFE" transform="translate(122.859742, 140.383234)"><polygon id="Stroke-5-Copy" points="27.862 17.67 56.009 0 84.153 17.67 56.009 35.339"/><polygon id="Stroke-5-Copy-6" points="0 35.401 28.146 17.731 56.291 35.401 28.146 53.069"/><polygon id="Stroke-5-Copy-5" points="319 233.67 347.146 216 375.291 233.67 347.146 251.339"/></g><g id="Group-Copy-11" stroke="#FEFEFE" transform="translate(66.568862, 175.844311)"><polygon id="Stroke-5-Copy" points="27.862 17.67 56.009 0 84.153 17.67 56.009 35.339"/><polygon id="Stroke-5-Copy-6" fill="#000" points="0 35.401 28.146 17.731 56.291 35.401 28.146 53.069"/></g><g id="Group-Copy" fill="#000" stroke="#FEFEFE" transform="translate(234.586826, 140.383234)"><polygon id="Stroke-5-Copy" points="27.862 17.67 56.009 0 84.153 17.67 56.009 35.339"/><polygon id="Stroke-5-Copy-6" points="0 35.401 28.146 17.731 56.291 35.401 28.146 53.069"/><polygon id="Stroke-5-Copy-5" points="56.569 35.401 84.715 17.731 112.86 35.401 84.715 53.069"/></g><g id="Group-Copy-16" fill="#000" stroke="#FEFEFE" transform="translate(37.862275, 0.652695)"><polygon id="Stroke-5-Copy" points="38 17.67 66.146 0 94.291 17.67 66.146 35.339"/><polygon id="Stroke-5-Copy-6" points="0 157.401 28.146 139.731 56.291 157.401 28.146 175.069"/><polygon id="Stroke-5-Copy-7" points="28.707 175.132 56.853 157.461 84.997 175.132 56.853 192.8"/><polygon id="Stroke-5-Copy-5" points="56.569 157.401 84.715 139.731 112.86 157.401 84.715 175.069"/></g><g id="Group-Copy-22" fill="#000" stroke="#FEFEFE" transform="translate(0.000000, 182.305389)"><polygon id="Stroke-5-Copy" points="0 17.67 28.146 0 56.291 17.67 28.146 35.339"/><polygon id="Stroke-5-Copy-6" points="10 64.401 38.146 46.731 66.291 64.401 38.146 82.069"/><polygon id="Stroke-5-Copy-7" points="38.707 82.132 66.853 64.461 94.997 82.132 66.853 99.8"/><polygon id="Stroke-5-Copy-13" points="94.431 117.593 122.578 99.922 150.722 117.593 122.578 135.261"/><polygon id="Stroke-5-Copy-14" points="94.431 153.054 122.578 135.383 150.722 153.054 122.578 170.722"/><polygon id="Stroke-5-Copy-5" points="66.569 64.401 94.715 46.731 122.86 64.401 94.715 82.069"/></g><g id="Group-Copy-3" fill="#000" stroke="#FEFEFE" transform="translate(290.311377, 51.000000)"><polygon id="Stroke-5-Copy-6" points="0 18.401 28.146 .731 56.291 18.401 28.146 36.069"/><polygon id="Stroke-5-Copy-5" points="178 44.67 206.146 27 234.291 44.67 206.146 62.339"/></g><g id="Group-Copy-14" stroke="#FEFEFE" transform="translate(376.431138, 69.461078)"><polygon id="Stroke-5-Copy" points="0 17.67 28.146 0 56.291 17.67 28.146 35.339"/></g><g id="Group-Copy-18" fill="#000" stroke="#FEFEFE" transform="translate(469.431138, 248.000000)"><polygon id="Stroke-5-Copy-6" points="0 17.67 28.146 0 56.291 17.67 28.146 35.339"/></g><g id="Group-Copy-13" fill="#000" stroke="#FEFEFE" transform="translate(21.586826, 64.191617)"><polygon id="Stroke-5-Copy-6" points="0 17.67 28.146 0 56.291 17.67 28.146 35.339"/></g><polygon id="Stroke-5-Copy-2" fill="#000" stroke="#FEFEFE" points="234.587 104.862 262.733 87.192 290.878 104.862 262.733 122.53"/><polygon id="Stroke-5-Copy-4" fill="#000" stroke="#FEFEFE" points="262.449 87.132 290.596 69.461 318.74 87.132 290.596 104.8"/><polygon id="Stroke-5-Copy-8" fill="#000" stroke="#FEFEFE" points="290.311 104.862 318.458 87.192 346.602 104.862 318.458 122.53"/></g><path id="Combined-Shape-Copy-7" fill="url(#linearGradient-1)" fill-rule="evenodd" stroke="#161D26" stroke-linecap="round" stroke-linejoin="round" stroke-width="1" d="M483.999915,430.06677 L476,425.044964 L492.00017,415 L507.999205,425.044964 L507.038828,425.647867 L508,425.044508 L508,441.112803 L491.99983,451.157768 L476,441.113259 L476,425.044964 L483.999915,430.06677 Z M491.99983,435.088575 L491.99983,451.15687 L492.00017,435.088789 Z M483.999915,430.06677 L492.00017,435.088789 L507.038828,425.647867 L491.99983,435.088333 L483.999915,430.06677 Z"/><path id="Combined-Shape-Copy-22" fill="url(#linearGradient-2)" fill-rule="evenodd" stroke="#161D26" stroke-linecap="round" stroke-linejoin="round" stroke-width="1" d="M813.999915,248.06677 L806,243.044964 L822.00017,233 L837.999205,243.044964 L837.038828,243.647867 L838,243.044508 L838,259.112803 L821.99983,269.157768 L806,259.113259 L806,243.044964 L813.999915,248.06677 Z M821.99983,253.088575 L821.99983,269.15687 L822.00017,253.088789 Z M813.999915,248.06677 L822.00017,253.088789 L837.038828,243.647867 L821.99983,253.088333 L813.999915,248.06677 Z"/><path id="Combined-Shape-Copy-24" fill="url(#linearGradient-3)" fill-rule="evenodd" stroke="#161D26" stroke-linecap="round" stroke-linejoin="round" stroke-width="1" d="M915.749928,736.712587 L909,732.475439 L922.500144,724 L935.99933,732.475439 L935.189011,732.984138 L936,732.475054 L936,746.032678 L922.499856,754.508117 L909,746.033063 L909,732.475439 L915.749928,736.712587 Z M922.499856,740.949735 L922.499856,754.507359 L922.500144,740.949915 Z M915.749928,736.712587 L922.500144,740.949915 L935.189011,732.984138 L922.499856,740.949531 L915.749928,736.712587 Z"/><path id="Combined-Shape-Copy-20" fill="url(#linearGradient-1)" fill-rule="evenodd" stroke="#161D26" stroke-linecap="round" stroke-linejoin="round" stroke-width="1" d="M451.999915,498.06677 L444,493.044964 L460.00017,483 L475.999205,493.044964 L475.038828,493.647867 L476,493.044508 L476,509.112803 L459.99983,519.157768 L444,509.113259 L444,493.044964 L451.999915,498.06677 Z M459.99983,503.088575 L459.99983,519.15687 L460.00017,503.088789 Z M451.999915,498.06677 L460.00017,503.088789 L475.038828,493.647867 L459.99983,503.088333 L451.999915,498.06677 Z"/><path id="Combined-Shape-Copy-21" fill="url(#linearGradient-2)" fill-rule="evenodd" stroke="#161D26" stroke-linecap="round" stroke-linejoin="round" stroke-width="1" d="M424.249933,676.770914 L418,672.847628 L430.500133,665 L442.999379,672.847628 L442.249084,673.318646 L443,672.847272 L443,685.400628 L430.499867,693.248256 L418,685.400984 L418,672.847628 L424.249933,676.770914 Z M430.499867,680.694199 L430.499867,693.247555 L430.500133,680.694366 Z M424.249933,676.770914 L430.500133,680.694366 L442.249084,673.318646 L430.499867,680.69401 L424.249933,676.770914 Z"/><path id="path-1" fill="#FFF" fill-rule="nonzero" d="M 601.937 497.791 C 601.937 497.791 595.937 527.791 603.937 564.791 L 607.607 559.791 C 607.467 569.546 608.501 579.282 610.687 588.791 L 614.267 586.171 L 617.097 604.171 C 618.156 610.926 623.978 615.904 630.817 615.9 L 630.817 615.9 C 637.165 615.9 642.703 611.593 644.267 605.441 L 648.607 588.441 C 656.614 591.11 665.27 591.11 673.277 588.441 L 677.617 605.441 C 679.181 611.593 684.719 615.9 691.067 615.9 L 691.067 615.9 C 697.905 615.904 703.728 610.926 704.787 604.171 L 707.617 586.171 L 711.197 588.751 C 713.382 579.242 714.416 569.506 714.277 559.751 L 717.947 564.751 C 725.947 527.751 719.947 497.751 719.947 497.751 C 719.947 497.751 719.277 467.421 714.277 452.671 C 710.437 441.351 699.277 430.921 699.277 430.921 L 703.277 430.921 C 694.787 422.471 683.397 418.171 674.567 416.071 C 665.606 413.903 656.258 413.903 647.297 416.071 C 638.467 418.171 627.087 422.471 618.597 430.951 L 622.597 430.951 C 622.597 430.951 612.267 441.701 607.597 452.701 C 607.597 452.701 599.777 466.951 601.937 497.791 Z"/><circle id="circle-1" cx="634.267" cy="458.791" r="4" fill="#171D26" fill-rule="nonzero"/><circle id="circle-1" cx="687.597" cy="458.791" r="4" fill="#171D26" fill-rule="nonzero"/><path id="path-1" fill="#FFF" fill-rule="nonzero" d="M 697.547 543.351 C 706.437 541.101 710.467 538.691 710.467 538.691 C 740.797 526.631 731.467 502.891 731.467 502.891 C 731.317 502.191 731.117 501.461 730.887 500.701 C 729.057 494.821 723.417 483.311 717.887 473.84 C 716.23 484.588 713.206 495.08 708.887 505.061 C 706.186 508.012 702.769 510.217 698.967 511.46 C 689.187 515.881 676.727 513.601 676.727 513.601 L 679.517 516.601 C 668.228 515.881 657.148 513.215 646.767 508.721 L 646.397 513.721 C 646.397 513.721 637.307 506.721 626.147 504.721 C 614.987 502.721 604.017 516.061 609.777 529.171 C 615.537 542.28 639.967 537.881 639.967 537.881 L 636.967 540.991 C 647.287 542.131 669.367 543.991 669.367 543.991 L 666.367 547.101 C 676.894 547.02 687.377 545.745 697.617 543.301"/><path id="path-1" fill="#E6E6E6" fill-rule="nonzero" d="M 678.537 519.391 C 667.526 518.659 656.713 516.108 646.537 511.84 L 646.767 508.671 C 657.148 513.165 668.228 515.831 679.517 516.551 L 676.727 513.551 C 676.727 513.551 689.187 515.831 698.967 511.411 C 709.797 507.741 712.317 499.411 712.197 496.541 L 712.197 496.661 C 712.499 504.117 708.308 511.03 701.557 514.21 C 694.322 517.504 686.485 519.268 678.537 519.391 Z"/><path id="path-1" fill="#E6E6E6" fill-rule="nonzero" d="M 645.417 516.53 C 645.417 516.53 636.327 509.53 625.167 507.53 C 618.367 506.311 611.647 510.801 608.727 517.451 C 610.787 509.291 618.417 503.311 626.137 504.691 C 635.437 506.351 643.297 511.501 645.657 513.171 L 645.417 516.53 Z"/><path id="path-1" fill="#FFF" fill-rule="nonzero" d="M 615.927 543.621 C 607.327 540.431 603.587 537.621 603.587 537.621 C 574.717 522.391 586.587 499.771 586.587 499.771 C 586.807 499.09 587.087 498.381 587.397 497.651 C 589.797 491.981 596.637 481.171 603.137 472.321 C 603.632 483.182 605.514 493.936 608.737 504.321 C 611.106 507.546 614.268 510.106 617.917 511.751 C 627.167 517.191 639.807 516.261 639.807 516.261 L 636.717 518.9 C 648.023 519.395 659.33 517.93 670.137 514.571 L 669.967 519.571 C 669.967 519.571 679.757 513.571 691.067 512.78 C 702.377 511.991 711.857 526.451 704.717 538.891 C 697.577 551.331 673.767 544.321 673.767 544.321 L 676.457 547.741 C 666.077 547.741 643.917 547.291 643.917 547.291 L 646.607 550.71 C 636.147 549.505 625.858 547.116 615.937 543.59"/><path id="path-1" fill="#E6E6E6" fill-rule="nonzero" d="M 637.387 521.821 C 648.414 522.273 659.44 520.894 670.017 517.741 L 670.137 514.571 C 659.336 517.928 648.037 519.393 636.737 518.9 L 639.827 516.261 C 639.827 516.261 627.137 517.171 617.927 511.751 C 607.547 506.951 605.927 498.371 606.367 495.551 L 606.367 495.671 C 605.268 503.052 608.695 510.375 615.067 514.261 C 621.908 518.289 629.506 520.863 637.387 521.821 Z"/><path id="path-1" fill="#E6E6E6" fill-rule="nonzero" d="M 670.627 522.53 C 670.627 522.53 680.417 516.53 691.727 515.741 C 698.617 515.261 704.817 520.441 707.007 527.371 C 705.837 519.03 698.887 512.271 691.057 512.821 C 681.627 513.481 673.267 517.761 670.737 519.161 L 670.627 522.53 Z"/><path id="path-1" fill="#E6E6E6" fill-rule="nonzero" d="M 599.927 535.621 C 599.927 535.621 611.147 541.911 630.017 541.311 C 630.017 541.311 611.907 544.371 600.487 540.641 L 599.927 535.621 Z"/><path id="path-1" fill="#E6E6E6" fill-rule="nonzero" d="M 722.137 532.09 C 722.137 532.09 712.817 540.96 694.397 545.09 C 694.397 545.09 711.467 544.09 721.607 537.631 L 722.137 532.09 Z"/><g id="Gruntwork_Illustrations-02" fill="none" fill-rule="evenodd" stroke="none" stroke-width="1" transform="matrix(1, 0, 0, 1, 500, 211)"><path id="Shape" stroke="#171D26" stroke-linecap="round" stroke-width="4" d="M131.54,264.5 L131.54,264.5 C149.831227,277.465593 174.202065,277.886396 192.93,265.56 L194.54,264.5"/><path id="Shape" fill="#B6B9BC" fill-rule="nonzero" d="M172,200 L151.13,200 C130.763185,200.027973 113.122614,214.13711 108.62,234 L105.87,234 C100.170421,234 95.55,238.620421 95.55,244.32 L95.55,253.67 C95.5473462,256.408766 96.6334571,259.036269 98.5691202,260.973807 C100.504783,262.911346 103.131232,264.000001 105.87,264 L108.61,264 C113.018181,283.288309 130.164391,296.975415 149.95,297 L163.55,297 C166.311424,297 168.55,294.761424 168.55,292 C168.55,289.238576 166.311424,287 163.55,287 L158.55,287 C156.173657,286.999515 154.125269,288.671669 153.65,291 L149.95,291 C129.855974,290.977955 113.572045,274.694026 113.55,254.6 L113.55,243.6 C113.566525,222.848749 130.378761,206.027566 151.13,206 L172,206 C192.751245,206.022046 209.567954,222.838755 209.59,243.59 L209.59,247 C209.59,248.656854 210.933146,250 212.59,250 C214.246854,250 215.59,248.656854 215.59,247 L215.59,243.59 C215.562446,219.52733 196.06267,200.027554 172,200 Z"/><path id="Shape" fill="#17A9F9" fill-rule="nonzero" d="M194.89,213.18 C192.89,184 172.71,178.31 165.76,177.29 L165.76,177.29 C165.76,177.29 164.76,177.17 163.76,177.1 C162.76,177.03 161.76,177 161.76,177 L161.76,177 C153.76,176.91 133.68,179.62 127.44,208.19 C127.44,208.19 134.61,222.19 159.61,224.37 L159.61,224.37 C160.61,224.44 159.94,224.37 160.11,224.37 L160.61,224.37 L160.61,224.37 C188.54,226.17 194.89,213.18 194.89,213.18 Z"/><path id="Shape" d="M138,194.57 C138,194.57 142.92,201.67 136.49,214.94"/><path id="Shape" fill="url(#linearGradient-9)" fill-rule="nonzero" d="M159.033108,173.875261 L168.776893,173.875261 C171.068947,173.875261 172.927023,175.733338 172.927023,178.025391 L172.927023,204.951118 L154.882977,204.951118 L154.882977,178.075514 C154.869578,176.966172 155.300901,175.897648 156.080658,175.108473 C156.860416,174.319298 157.923685,173.87518 159.033108,173.875261 Z" transform="translate(163.904849, 189.413189) rotate(4.004173) translate(-163.904849, -189.413189)"/><path id="Shape" fill="url(#linearGradient-10)" fill-rule="nonzero" d="M125.24,215.83 L131.68,224.9 C136.892807,232.242723 145.109485,236.877208 154.09,237.54 L164.3,238.29 C173.27227,238.94663 182.070385,235.570353 188.3,229.08 L196,221.08 C197.063916,219.969853 197.707515,218.523522 197.82,216.99 L197.99,214.73 C198.110416,213.079028 196.870817,211.642525 195.22,211.52 L191.59,214.22 C183.298799,220.390758 173.136143,223.519359 162.81,223.08 L160.28,222.97 L157.76,222.7 C147.478932,221.616249 137.884526,217.025624 130.59,209.7 L127.4,206.5 C125.749028,206.379584 124.312525,207.619183 124.19,209.27 L124.02,211.53 C123.915012,213.061514 124.346354,214.581819 125.24,215.83 L125.24,215.83 Z"/><path id="Shape" fill="#171D26" fill-rule="nonzero" d="M159.82,228.94 C152.136318,228.370076 146.065658,222.192463 145.63,214.5 C144.40993,220.347768 146.690953,226.372491 151.477982,229.945908 C156.265011,233.519325 162.689637,233.993186 167.949141,231.160771 C173.208645,228.328356 176.348907,222.703491 176,216.74 C174.438524,224.294642 167.512732,229.51681 159.82,228.94 Z" opacity=".15"/><circle id="Oval" cx="160.892" cy="214.629" r="15.36" fill="#FFF" fill-rule="nonzero" transform="translate(160.891944, 214.628691) rotate(-85.770000) translate(-160.891944, -214.628691)"/><path id="Shape" fill="#F2F2F2" fill-rule="nonzero" d="M153.1,221.33 C150.351634,218.187641 149.778906,213.694297 151.651144,209.962989 C153.523383,206.231681 157.467994,204.004978 161.63,204.33"/></g></svg>